/home/minht/3dpredictsim_tutorial/predsim_tutorial/Results/Case_16/GRF.mot
version=1
nRows=27
nColumns=19
inDegrees=yes
endheader 
time	r_ground_force_vx	r_ground_force_vy	r_ground_force_vz	r_ground_force_px	r_ground_force_py	r_ground_force_pz	l_ground_force_vx	l_ground_force_vy	l_ground_force_vz	l_ground_force_px	l_ground_force_py	l_ground_force_pz	r_ground_torque_x	r_ground_torque_y	r_ground_torque_z	l_ground_torque_x	l_ground_torque_y	l_ground_torque_z	
          0.00000000	        -36.22537398	         33.84277125	          8.93992555	          0.15332193	          0.00000000	          0.04700266	         84.18135444	        867.92739786	         20.89262308	         -0.22632274	          0.00000000	         -0.05143730	          0.00000000	         -0.00000552	          0.00000000	          0.00000000	         -4.82778914	          0.00000000	
          0.01668656	        -57.49593759	         89.17738054	         26.85900397	          0.15947474	          0.00000000	          0.04557485	         84.69286030	        836.85272919	         17.98965224	         -0.21973637	          0.00000000	         -0.05195049	          0.00000000	         -0.00025454	          0.00000000	          0.00000000	         -4.61298373	          0.00000000	
          0.03337311	        -17.25475547	        192.26007246	         14.68238929	          0.16285696	          0.00000000	          0.04422184	         84.67709263	        791.00232171	         14.88889000	         -0.21259144	          0.00000000	         -0.05245881	          0.00000000	         -0.00274142	          0.00000000	          0.00000000	         -3.87253683	          0.00000000	
          0.05005967	        -20.26397440	        299.99212252	          3.98348567	          0.16439697	          0.00000000	          0.04381283	         80.97492445	        738.47573801	         12.36685396	         -0.20559056	          0.00000000	         -0.05279128	          0.00000000	         -0.02702338	          0.00000000	          0.00000000	         -2.69067328	          0.00000000	
          0.06674622	        -34.45468283	        403.51459626	         -0.90280602	          0.16687697	          0.00000000	          0.04409001	         75.15613246	        678.64115213	          9.69280231	         -0.19920844	          0.00000000	         -0.05313837	          0.00000000	         -0.07661055	          0.00000000	          0.00000000	         -1.65417073	          0.00000000	
          0.08343278	        -54.54579672	        517.02126678	         -5.71924815	          0.17339628	          0.00000000	          0.04562546	         69.05492025	        606.08120619	          7.21518822	         -0.19250255	          0.00000000	         -0.05384956	          0.00000000	         -0.17371767	          0.00000000	          0.00000000	         -0.76776932	          0.00000000	
          0.10011933	        -70.92845575	        612.06473450	         -9.02722139	          0.17981376	          0.00000000	          0.04679241	         59.60170515	        526.44661341	          5.64201835	         -0.18557529	          0.00000000	         -0.05525088	          0.00000000	         -0.09190160	          0.00000000	          0.00000000	         -0.15968739	          0.00000000	
          0.11680589	        -80.51486269	        677.85733725	        -10.77761283	          0.18556745	          0.00000000	          0.04718799	         48.10552978	        441.57086449	          3.51204701	         -0.17788203	          0.00000000	         -0.05747285	          0.00000000	          0.19111922	          0.00000000	          0.00000000	          0.10988767	          0.00000000	
          0.13349245	        -88.10664179	        731.65671590	        -11.29878934	          0.19230581	          0.00000000	          0.04629105	         35.12586997	        357.46482256	          1.11617016	         -0.16844075	          0.00000000	         -0.06059110	          0.00000000	          0.66668626	          0.00000000	          0.00000000	          0.12640492	          0.00000000	
          0.15017900	        -92.43633165	        775.24336220	        -10.85460097	          0.19893770	          0.00000000	          0.04511043	         23.60762906	        283.11643909	         -0.95052350	         -0.15755392	          0.00000000	         -0.06446128	          0.00000000	          1.20772895	          0.00000000	          0.00000000	          0.01668220	          0.00000000	
          0.16686556	        -91.44353994	        801.19038136	        -11.08782342	          0.20425953	          0.00000000	          0.04438135	         15.41290625	        226.35005007	         -2.47345609	         -0.14775631	          0.00000000	         -0.06828414	          0.00000000	          1.39417604	          0.00000000	          0.00000000	         -0.05887984	          0.00000000	
          0.18355211	        -87.19259246	        813.55232978	        -11.28610857	          0.20848463	          0.00000000	          0.04392738	         10.58327698	        187.92941862	         -3.78332482	         -0.14291984	          0.00000000	         -0.07061487	          0.00000000	          1.32851617	          0.00000000	          0.00000000	         -0.03615330	          0.00000000	
          0.20023867	        -81.38806624	        820.04904600	        -11.01202313	          0.21196397	          0.00000000	          0.04366142	          5.84935776	        157.20488846	         -5.88455313	         -0.14138539	          0.00000000	         -0.07126968	          0.00000000	          1.26128008	          0.00000000	          0.00000000	         -0.00448445	          0.00000000	
          0.21692523	        -74.78848556	        826.93534771	        -10.51016339	          0.21494674	          0.00000000	          0.04353611	          0.29374885	        126.73166245	         -7.82892160	         -0.13983697	          0.00000000	         -0.07207124	          0.00000000	          1.31818764	          0.00000000	          0.00000000	          0.03734818	          0.00000000	
          0.23361178	        -67.74977381	        837.05441735	        -10.17675912	          0.21757910	          0.00000000	          0.04351464	         -5.71698167	         95.39859359	         -8.53931524	         -0.13799752	          0.00000000	         -0.07305795	          0.00000000	          1.43722705	          0.00000000	          0.00000000	          0.06751452	          0.00000000	
          0.25029834	        -60.36196211	        850.55940236	        -11.37448697	          0.22002210	          0.00000000	          0.04354807	        -12.02399559	         63.32277058	         -8.33828157	         -0.13586618	          0.00000000	         -0.07464768	          0.00000000	          1.47607983	          0.00000000	          0.00000000	          0.07570404	          0.00000000	
          0.26698489	        -53.30729205	        866.33662371	        -14.68263242	          0.22231435	          0.00000000	          0.04361998	        -16.74344318	         30.40200306	         -3.13377464	         -0.13312846	          0.00000000	         -0.07655949	          0.00000000	          1.45683394	          0.00000000	          0.00000000	          0.04572112	          0.00000000	
          0.28367145	        -46.41544723	        880.21091249	        -16.73341942	          0.22441491	          0.00000000	          0.04377423	          0.00000000	          0.00000000	          0.00000000	          0.00000000	          0.00000000	          0.00000000	          0.00000000	          1.59743286	          0.00000000	          0.00000000	          0.00000000	          0.00000000	
          0.30035800	        -39.72402877	        886.59277281	        -17.90941597	          0.22633054	          0.00000000	          0.04398017	          0.00000000	          0.00000000	          0.00000000	          0.00000000	          0.00000000	          0.00000000	          0.00000000	          1.74466511	          0.00000000	          0.00000000	          0.00000000	          0.00000000	
          0.31704456	        -33.65834974	        887.23667201	        -18.46135001	          0.22813001	          0.00000000	          0.04420867	          0.00000000	          0.00000000	          0.00000000	          0.00000000	          0.00000000	          0.00000000	          0.00000000	          1.87970384	          0.00000000	          0.00000000	          0.00000000	          0.00000000	
          0.33373112	        -28.21635267	        886.56825064	        -18.87225606	          0.23003416	          0.00000000	          0.04442010	          0.00000000	          0.00000000	          0.00000000	          0.00000000	          0.00000000	          0.00000000	          0.00000000	          1.98050822	          0.00000000	          0.00000000	          0.00000000	          0.00000000	
          0.35041767	        -23.62988400	        886.83615676	        -19.28143862	          0.23204447	          0.00000000	          0.04461712	          0.00000000	          0.00000000	          0.00000000	          0.00000000	          0.00000000	          0.00000000	          0.00000000	          2.13763873	          0.00000000	          0.00000000	          0.00000000	          0.00000000	
          0.36710423	        -19.69030164	        888.43358029	        -19.72061094	          0.23412943	          0.00000000	          0.04480246	          0.00000000	          0.00000000	          0.00000000	          0.00000000	          0.00000000	          0.00000000	          0.00000000	          2.37663934	          0.00000000	          0.00000000	          0.00000000	          0.00000000	
          0.38379078	        -16.72175926	        891.83062095	        -20.21744848	          0.23632073	          0.00000000	          0.04497293	          0.00000000	          0.00000000	          0.00000000	          0.00000000	          0.00000000	          0.00000000	          0.00000000	          2.69637159	          0.00000000	          0.00000000	          0.00000000	          0.00000000	
          0.40047734	        -14.07926509	        896.71186534	        -20.78887516	          0.23866035	          0.00000000	          0.04512580	          0.00000000	          0.00000000	          0.00000000	          0.00000000	          0.00000000	          0.00000000	          0.00000000	          3.07377363	          0.00000000	          0.00000000	          0.00000000	          0.00000000	
          0.41716389	        -11.86359636	        901.76706376	        -21.36690774	          0.24108284	          0.00000000	          0.04526616	          0.00000000	          0.00000000	          0.00000000	          0.00000000	          0.00000000	          0.00000000	          0.00000000	          3.50854019	          0.00000000	          0.00000000	          0.00000000	          0.00000000	
          0.43385045	         -9.62419953	        906.55245232	        -21.99009153	          0.24356096	          0.00000000	          0.04538919	          0.00000000	          0.00000000	          0.00000000	          0.00000000	          0.00000000	          0.00000000	          0.00000000	          3.94647516	          0.00000000	          0.00000000	          0.00000000	          0.00000000	
